<?xml version="1.0" encoding="utf-8" standalone="no"?>
<!DOCTYPE svg PUBLIC "-//W3C//DTD SVG 1.1//EN"
  "http://www.w3.org/Graphics/SVG/1.1/DTD/svg11.dtd">
<!-- Created with matplotlib (http://matplotlib.org/) -->
<svg height="432pt" version="1.1" viewBox="0 0 720 432" width="720pt" xmlns="http://www.w3.org/2000/svg" xmlns:xlink="http://www.w3.org/1999/xlink">
 <defs>
  <style type="text/css">
*{stroke-linecap:butt;stroke-linejoin:round;}
  </style>
 </defs>
 <g id="figure_1">
  <g id="patch_1">
   <path d="
M0 432
L720 432
L720 0
L0 0
z
" style="fill:#ffffff;"/>
  </g>
  <g id="axes_1">
   <g id="patch_2">
    <path d="
M72 388.8
L648 388.8
L648 43.2
L72 43.2
z
" style="fill:#ffffff;"/>
   </g>
   <g id="line2d_1">
    <path clip-path="url(#p44c2d976d3)" d="
M72 388.8
L136 384.533
L200 371.733
L264 350.4
L328 320.533
L392 282.133
L456 235.2
L520 179.733
L584 115.733
L648 43.2" style="fill:none;stroke:#0000ff;stroke-linecap:square;stroke-width:2.0;"/>
   </g>
   <g id="matplotlib.axis_1">
    <g id="xtick_1">
     <g id="line2d_2">
      <defs>
       <path d="
M0 0
L0 -4" id="m93b0483c22" style="stroke:#000000;stroke-width:0.5;"/>
      </defs>
      <g>
       <use style="stroke:#000000;stroke-width:0.5;" x="72.0" xlink:href="#m93b0483c22" y="388.8"/>
      </g>
     </g>
     <g id="line2d_3">
      <defs>
       <path d="
M0 0
L0 4" id="m741efc42ff" style="stroke:#000000;stroke-width:0.5;"/>
      </defs>
      <g>
       <use style="stroke:#000000;stroke-width:0.5;" x="72.0" xlink:href="#m741efc42ff" y="43.2"/>
      </g>
     </g>
     <g id="text_1">
      <!-- 0 -->
      <defs>
       <path d="
M47.5938 33
Q47.5938 26.2969 46.2969 20.3438
Q45 14.4062 42.4531 9.40625
Q39.9062 4.40625 35.4062 1.5
Q30.9062 -1.40625 25 -1.40625
Q18.9062 -1.40625 14.2969 1.6875
Q9.70312 4.79688 7.20312 10
Q4.70312 15.2031 3.54688 21.0938
Q2.40625 27 2.40625 33.5938
Q2.40625 42.9062 4.70312 50.3438
Q7 57.7969 12.3438 62.6875
Q17.7031 67.5938 25.4062 67.5938
Q35.2031 67.5938 41.3906 58
Q47.5938 48.4062 47.5938 33
M38 32.5
Q38 48.2969 34.6406 56.6406
Q31.2969 65 24.7969 65
Q18.5938 65 15.2969 56.5938
Q12 48.2031 12 32.9062
Q12 17.5 15.2969 9.34375
Q18.5938 1.20312 25 1.20312
Q31.2969 1.20312 34.6406 9.34375
Q38 17.5 38 32.5" id="STIXGeneral-Regular-30"/>
      </defs>
      <g transform="translate(68.836875 402.3615625)scale(0.14 -0.14)">
       <use xlink:href="#STIXGeneral-Regular-30"/>
      </g>
     </g>
    </g>
    <g id="xtick_2">
     <g id="line2d_4">
      <g>
       <use style="stroke:#000000;stroke-width:0.5;" x="187.2" xlink:href="#m93b0483c22" y="388.8"/>
      </g>
     </g>
     <g id="line2d_5">
      <g>
       <use style="stroke:#000000;stroke-width:0.5;" x="187.2" xlink:href="#m741efc42ff" y="43.2"/>
      </g>
     </g>
     <g id="text_2">
      <!-- 1 -->
      <defs>
       <path d="
M39.4062 0
L11.7969 0
L11.7969 1.5
Q17.2969 1.79688 19.2969 3.54688
Q21.2969 5.29688 21.2969 9.5
L21.2969 54.4062
Q21.2969 59.2969 18.2969 59.2969
Q16.9062 59.2969 13.7969 58.0938
L11.0938 57.0938
L11.0938 58.5
L29 67.5938
L29.9062 67.2969
L29.9062 7.59375
Q29.9062 4.29688 31.9062 2.89062
Q33.9062 1.5 39.4062 1.5
z
" id="STIXGeneral-Regular-31"/>
      </defs>
      <g transform="translate(185.218125 402.3615625)scale(0.14 -0.14)">
       <use xlink:href="#STIXGeneral-Regular-31"/>
      </g>
     </g>
    </g>
    <g id="xtick_3">
     <g id="line2d_6">
      <g>
       <use style="stroke:#000000;stroke-width:0.5;" x="302.4" xlink:href="#m93b0483c22" y="388.8"/>
      </g>
     </g>
     <g id="line2d_7">
      <g>
       <use style="stroke:#000000;stroke-width:0.5;" x="302.4" xlink:href="#m741efc42ff" y="43.2"/>
      </g>
     </g>
     <g id="text_3">
      <!-- 2 -->
      <defs>
       <path d="
M47.4062 13.7031
L42 0
L2.90625 0
L2.90625 1.20312
L20.7031 20.0938
Q27.7031 27.4062 30.7031 33.5
Q33.7031 39.5938 33.7031 46.0938
Q33.7031 52.7969 30 56.5
Q26.2969 60.2031 19.7969 60.2031
Q14.4062 60.2031 11.25 57.3906
Q8.09375 54.5938 5.09375 47.2031
L3 47.7031
Q4.70312 57 9.84375 62.2969
Q15 67.5938 23.7969 67.5938
Q32.0938 67.5938 37.1875 62.5938
Q42.2969 57.5938 42.2969 50
Q42.2969 38.7031 29.5 25.2031
L13 7.59375
L36.4062 7.59375
Q39.7031 7.59375 41.6406 8.89062
Q43.5938 10.2031 46 14.2969
z
" id="STIXGeneral-Regular-32"/>
      </defs>
      <g transform="translate(299.285 402.3615625)scale(0.14 -0.14)">
       <use xlink:href="#STIXGeneral-Regular-32"/>
      </g>
     </g>
    </g>
    <g id="xtick_4">
     <g id="line2d_8">
      <g>
       <use style="stroke:#000000;stroke-width:0.5;" x="417.6" xlink:href="#m93b0483c22" y="388.8"/>
      </g>
     </g>
     <g id="line2d_9">
      <g>
       <use style="stroke:#000000;stroke-width:0.5;" x="417.6" xlink:href="#m741efc42ff" y="43.2"/>
      </g>
     </g>
     <g id="text_4">
      <!-- 3 -->
      <defs>
       <path d="
M6.09375 51
L4.5 51.4062
Q6.79688 58.9062 11.6875 63.25
Q16.5938 67.5938 24.0938 67.5938
Q31.0938 67.5938 35.3906 63.7969
Q39.7031 60 39.7031 53.9062
Q39.7031 45.7031 30.4062 40.0938
Q35.9062 37.7031 38.7031 34.7969
Q43.0938 29.9062 43.0938 21.9062
Q43.0938 13.9062 38.5 7.90625
Q35.0938 3.29688 28.75 0.9375
Q22.4062 -1.40625 15.2969 -1.40625
Q4.09375 -1.40625 4.09375 4.29688
Q4.09375 5.90625 5.29688 6.90625
Q6.5 7.90625 8.20312 7.90625
Q10.7031 7.90625 14.2969 5.29688
Q18.7031 2.20312 22.9062 2.20312
Q28.4062 2.20312 32.1562 6.64062
Q35.9062 11.0938 35.9062 17.5
Q35.9062 29 25.5 32
Q22.4062 33 15.2969 33
L15.2969 34.4062
Q20.9062 36.2969 23.7031 38
Q31.7969 42.5938 31.7969 51.4062
Q31.7969 56.4062 28.9375 59
Q26.0938 61.5938 21 61.5938
Q12 61.5938 6.09375 51" id="STIXGeneral-Regular-33"/>
      </defs>
      <g transform="translate(414.87 402.3615625)scale(0.14 -0.14)">
       <use xlink:href="#STIXGeneral-Regular-33"/>
      </g>
     </g>
    </g>
    <g id="xtick_5">
     <g id="line2d_10">
      <g>
       <use style="stroke:#000000;stroke-width:0.5;" x="532.8" xlink:href="#m93b0483c22" y="388.8"/>
      </g>
     </g>
     <g id="line2d_11">
      <g>
       <use style="stroke:#000000;stroke-width:0.5;" x="532.8" xlink:href="#m741efc42ff" y="43.2"/>
      </g>
     </g>
     <g id="text_5">
      <!-- 4 -->
      <defs>
       <path d="
M47.2969 16.7031
L37 16.7031
L37 0
L29.2031 0
L29.2031 16.7031
L1.20312 16.7031
L1.20312 23.0938
L32.5938 67.5938
L37 67.5938
L37 23.0938
L47.2969 23.0938
z

M29.2031 23.0938
L29.2031 57.4062
L5.20312 23.0938
z
" id="STIXGeneral-Regular-34"/>
      </defs>
      <g transform="translate(529.5734375 402.3615625)scale(0.14 -0.14)">
       <use xlink:href="#STIXGeneral-Regular-34"/>
      </g>
     </g>
    </g>
    <g id="xtick_6">
     <g id="line2d_12">
      <g>
       <use style="stroke:#000000;stroke-width:0.5;" x="648.0" xlink:href="#m93b0483c22" y="388.8"/>
      </g>
     </g>
     <g id="line2d_13">
      <g>
       <use style="stroke:#000000;stroke-width:0.5;" x="648.0" xlink:href="#m741efc42ff" y="43.2"/>
      </g>
     </g>
     <g id="text_6">
      <!-- 5 -->
      <defs>
       <path d="
M43.7969 68.0938
L40.2031 59.5938
Q39.5938 58.2969 37.5 58.2969
L18.0938 58.2969
L14.0938 49.7969
Q25.0938 47.7031 30 45.25
Q34.9062 42.7969 39.0938 37
Q42.5938 32.2031 42.5938 24.2969
Q42.5938 17.0938 40.25 12.1875
Q37.9062 7.29688 32.7969 3.5
Q26 -1.40625 15.7969 -1.40625
Q10.0938 -1.40625 6.59375 0.296875
Q3.09375 2 3.09375 4.79688
Q3.09375 8.59375 7.59375 8.59375
Q11.2031 8.59375 15 5.5
Q18.9062 2.29688 22.0938 2.29688
Q27.2969 2.29688 31.4375 7.5
Q35.5938 12.7031 35.5938 19.2031
Q35.5938 28.7969 28.9062 34.2031
Q20.2031 41.2031 7.59375 41.2031
Q6.40625 41.2031 6.40625 42
L6.5 42.5
L17.4062 66.2031
L38.0938 66.2031
Q39.7969 66.2031 40.75 66.7031
Q41.7031 67.2031 42.9062 68.7969
z
" id="STIXGeneral-Regular-35"/>
      </defs>
      <g transform="translate(645.15078125 402.3615625)scale(0.14 -0.14)">
       <use xlink:href="#STIXGeneral-Regular-35"/>
      </g>
     </g>
    </g>
    <g id="text_7">
     <!-- x -->
     <defs>
      <path d="
M47.9062 0
L27.7969 0
L27.7969 1.5
Q30.2969 1.70312 31.0469 2.14062
Q31.7969 2.59375 31.7969 3.90625
Q31.7969 4.79688 31.2031 5.70312
L22.0938 19.7031
L14.2031 7.40625
Q12.2031 4.29688 12.2031 3.29688
Q12.2031 1.5 16.2031 1.5
L16.2031 0
L1.70312 0
L1.70312 1.5
Q4.20312 1.70312 5.54688 2.64062
Q6.90625 3.59375 9 6.59375
L20.4062 23.0938
L11 37.5
Q8.70312 41 7.09375 42.25
Q5.5 43.5 3.29688 43.5
L2.40625 43.5
L2.40625 45
L23.0938 45
L23.0938 43.5
Q18.7969 43.4062 18.7969 41.2969
Q18.7969 39.2031 23.4062 32.4062
Q24.7031 30.5938 24.7969 30.4062
Q25.2969 31.0938 27.7969 34.7969
Q28.2969 35.7031 29 36.7031
Q29.7031 37.7031 30.0469 38.2969
Q30.4062 38.9062 30.7969 39.5
Q31.2031 40.0938 31.3438 40.5469
Q31.5 41 31.5 41.2969
Q31.5 43.2031 27.5 43.5
L27.5 45
L43.2969 45
L43.2969 43.5
Q38.2031 43.2969 35.2031 39.0938
L26.9062 27.0938
L39.7031 7.5
Q43.5938 1.5 47.9062 1.5
z
" id="STIXGeneral-Regular-78"/>
     </defs>
     <g transform="translate(356.76578125 419.9615625)scale(0.14 -0.14)">
      <use xlink:href="#STIXGeneral-Regular-78"/>
     </g>
    </g>
   </g>
   <g id="matplotlib.axis_2">
    <g id="ytick_1">
     <g id="line2d_14">
      <defs>
       <path d="
M0 0
L4 0" id="m728421d6d4" style="stroke:#000000;stroke-width:0.5;"/>
      </defs>
      <g>
       <use style="stroke:#000000;stroke-width:0.5;" x="72.0" xlink:href="#m728421d6d4" y="388.8"/>
      </g>
     </g>
     <g id="line2d_15">
      <defs>
       <path d="
M0 0
L-4 0" id="mcb0005524f" style="stroke:#000000;stroke-width:0.5;"/>
      </defs>
      <g>
       <use style="stroke:#000000;stroke-width:0.5;" x="648.0" xlink:href="#mcb0005524f" y="388.8"/>
      </g>
     </g>
     <g id="text_8">
      <!-- 0 -->
      <g transform="translate(61.67375 392.0615625)scale(0.14 -0.14)">
       <use xlink:href="#STIXGeneral-Regular-30"/>
      </g>
     </g>
    </g>
    <g id="ytick_2">
     <g id="line2d_16">
      <g>
       <use style="stroke:#000000;stroke-width:0.5;" x="72.0" xlink:href="#m728421d6d4" y="319.68"/>
      </g>
     </g>
     <g id="line2d_17">
      <g>
       <use style="stroke:#000000;stroke-width:0.5;" x="648.0" xlink:href="#mcb0005524f" y="319.68"/>
      </g>
     </g>
     <g id="text_9">
      <!-- 5 -->
      <g transform="translate(62.3015625 322.9415625)scale(0.14 -0.14)">
       <use xlink:href="#STIXGeneral-Regular-35"/>
      </g>
     </g>
    </g>
    <g id="ytick_3">
     <g id="line2d_18">
      <g>
       <use style="stroke:#000000;stroke-width:0.5;" x="72.0" xlink:href="#m728421d6d4" y="250.56"/>
      </g>
     </g>
     <g id="line2d_19">
      <g>
       <use style="stroke:#000000;stroke-width:0.5;" x="648.0" xlink:href="#mcb0005524f" y="250.56"/>
      </g>
     </g>
     <g id="text_10">
      <!-- 10 -->
      <g transform="translate(55.89 253.8215625)scale(0.14 -0.14)">
       <use xlink:href="#STIXGeneral-Regular-31"/>
       <use x="49.9999847412" xlink:href="#STIXGeneral-Regular-30"/>
      </g>
     </g>
    </g>
    <g id="ytick_4">
     <g id="line2d_20">
      <g>
       <use style="stroke:#000000;stroke-width:0.5;" x="72.0" xlink:href="#m728421d6d4" y="181.44"/>
      </g>
     </g>
     <g id="line2d_21">
      <g>
       <use style="stroke:#000000;stroke-width:0.5;" x="648.0" xlink:href="#mcb0005524f" y="181.44"/>
      </g>
     </g>
     <g id="text_11">
      <!-- 15 -->
      <g transform="translate(56.4215625 184.7015625)scale(0.14 -0.14)">
       <use xlink:href="#STIXGeneral-Regular-31"/>
       <use x="49.9999847412" xlink:href="#STIXGeneral-Regular-35"/>
      </g>
     </g>
    </g>
    <g id="ytick_5">
     <g id="line2d_22">
      <g>
       <use style="stroke:#000000;stroke-width:0.5;" x="72.0" xlink:href="#m728421d6d4" y="112.32"/>
      </g>
     </g>
     <g id="line2d_23">
      <g>
       <use style="stroke:#000000;stroke-width:0.5;" x="648.0" xlink:href="#mcb0005524f" y="112.32"/>
      </g>
     </g>
     <g id="text_12">
      <!-- 20 -->
      <g transform="translate(54.74375 115.5815625)scale(0.14 -0.14)">
       <use xlink:href="#STIXGeneral-Regular-32"/>
       <use x="49.9999847412" xlink:href="#STIXGeneral-Regular-30"/>
      </g>
     </g>
    </g>
    <g id="ytick_6">
     <g id="line2d_24">
      <g>
       <use style="stroke:#000000;stroke-width:0.5;" x="72.0" xlink:href="#m728421d6d4" y="43.2"/>
      </g>
     </g>
     <g id="line2d_25">
      <g>
       <use style="stroke:#000000;stroke-width:0.5;" x="648.0" xlink:href="#mcb0005524f" y="43.2"/>
      </g>
     </g>
     <g id="text_13">
      <!-- 25 -->
      <g transform="translate(55.2753125 46.4615625)scale(0.14 -0.14)">
       <use xlink:href="#STIXGeneral-Regular-32"/>
       <use x="49.9999847412" xlink:href="#STIXGeneral-Regular-35"/>
      </g>
     </g>
    </g>
    <g id="text_14">
     <!-- y -->
     <defs>
      <path d="
M47.5 45
L47.5 43.5
Q45.7031 43.2969 44.5938 42.1875
Q43.5 41.0938 42.5 38.4062
L27.5 -2.5
Q23.5938 -13.0938 19.6406 -17.4375
Q15.7031 -21.7969 10 -21.7969
Q6.79688 -21.7969 4.89062 -20.1406
Q3 -18.5 3 -16
Q3 -14.0938 4.25 -12.75
Q5.5 -11.4062 7.29688 -11.4062
Q10.2031 -11.4062 12.5 -12.7031
Q13.7969 -13.4062 15.0938 -13.4062
Q17.2031 -13.4062 20.0938 -9
Q21.5 -7 22.7969 -3.29688
Q24.0938 0.40625 24.0938 1.79688
Q24.0938 3.09375 19.9062 11.9062
L6.70312 40.0938
Q5.40625 43 1.40625 43.5938
L1.40625 45
L21.9062 45
L21.9062 43.5
Q18.7031 43.4062 17.4531 42.7969
Q16.2031 42.2031 16.2031 40.7969
Q16.2031 39.7031 17.5 36.7031
L28.7031 11.7031
L38.4062 39.2969
Q38.7969 40.2031 38.7969 41.0938
Q38.7969 43.5 34.2031 43.5
L34.2031 45
z
" id="STIXGeneral-Regular-79"/>
     </defs>
     <g transform="translate(46.6921875 219.2265625)rotate(-90.0)scale(0.14 -0.14)">
      <use xlink:href="#STIXGeneral-Regular-79"/>
     </g>
    </g>
   </g>
   <g id="patch_3">
    <path d="
M72 43.2
L648 43.2" style="fill:none;stroke:#000000;"/>
   </g>
   <g id="patch_4">
    <path d="
M648 388.8
L648 43.2" style="fill:none;stroke:#000000;"/>
   </g>
   <g id="patch_5">
    <path d="
M72 388.8
L648 388.8" style="fill:none;stroke:#000000;"/>
   </g>
   <g id="patch_6">
    <path d="
M72 388.8
L72 43.2" style="fill:none;stroke:#000000;"/>
   </g>
   <g id="text_15">
    <!-- title -->
    <defs>
     <path d="
M25.7031 0
L2.09375 0
L2.09375 1.5
Q6.79688 1.90625 8.29688 3.45312
Q9.79688 5 9.79688 9.20312
L9.79688 56.0938
Q9.79688 59.7031 8.89062 61.0938
Q8 62.5 5.59375 62.5
Q3.5 62.5 1.90625 62.2969
L1.90625 63.9062
Q11.4062 66.2031 17.7031 68.2969
L18.2031 67.9062
L18.2031 8.70312
Q18.2031 4.5 19.5938 3.14062
Q21 1.79688 25.7031 1.5
z
" id="STIXGeneral-Regular-6c"/>
     <path d="
M18 63.2031
Q18 61 16.5 59.5469
Q15 58.0938 12.7969 58.0938
Q10.7031 58.0938 9.25 59.5469
Q7.79688 61 7.79688 63.2031
Q7.79688 65.2969 9.29688 66.7969
Q10.7969 68.2969 12.9062 68.2969
Q15.0938 68.2969 16.5469 66.7969
Q18 65.2969 18 63.2031
M25.2969 0
L1.59375 0
L1.59375 1.5
Q6.79688 1.79688 8.14062 3.29688
Q9.5 4.79688 9.5 10.4062
L9.5 33.0938
Q9.5 36.5938 8.79688 38
Q8.09375 39.4062 6.20312 39.4062
Q3.79688 39.4062 2 38.9062
L2 40.5
L17.5 46
L17.9062 45.5938
L17.9062 10.5
Q17.9062 4.90625 19.1562 3.40625
Q20.4062 1.90625 25.2969 1.5
z
" id="STIXGeneral-Regular-69"/>
     <path d="
M26.5938 7.70312
L27.9062 6.59375
Q23.0938 -1 15.7969 -1
Q7 -1 7 11.7031
L7 41.7969
L1.70312 41.7969
Q1.29688 42.0938 1.29688 42.5
Q1.29688 43.2969 3 44.4062
Q6.79688 46.5938 12.7031 55.0938
Q12.9062 55.4062 13.6562 56.3438
Q14.4062 57.2969 14.7031 57.9062
Q15.4062 57.9062 15.4062 56.5938
L15.4062 45
L25.5 45
L25.5 41.7969
L15.4062 41.7969
L15.4062 13.2031
Q15.4062 8.40625 16.5938 6.29688
Q17.7969 4.20312 20.5938 4.20312
Q23.5938 4.20312 26.5938 7.70312" id="STIXGeneral-Regular-74"/>
     <path d="
M40.7969 16.4062
L42.4062 15.7031
Q36.4062 -1 21.5 -1
Q12.7031 -1 7.59375 5.14062
Q2.5 11.2969 2.5 21.7031
Q2.5 32.4062 8.20312 39.2031
Q13.9062 46 23.2031 46
Q32.2031 46 37.0938 39.0938
Q40 35.0938 40.5 27.7031
L9.70312 27.7031
Q10.0938 21.4062 10.9375 18.0938
Q11.7969 14.7969 14.2969 11.4062
Q18.5 5.90625 25.4062 5.90625
Q30.2969 5.90625 33.6406 8.29688
Q37 10.7031 40.7969 16.4062
M9.90625 30.9062
L30.2969 30.9062
Q29.4062 37.2031 27.3438 39.7969
Q25.2969 42.4062 20.5 42.4062
Q16.2969 42.4062 13.5 39.4531
Q10.7031 36.5 9.90625 30.9062" id="STIXGeneral-Regular-65"/>
    </defs>
    <g transform="translate(347.2070625 38.2)scale(0.168 -0.168)">
     <use xlink:href="#STIXGeneral-Regular-74"/>
     <use x="27.799987793" xlink:href="#STIXGeneral-Regular-69"/>
     <use x="55.5999755859" xlink:href="#STIXGeneral-Regular-74"/>
     <use x="83.3999633789" xlink:href="#STIXGeneral-Regular-6c"/>
     <use x="111.199951172" xlink:href="#STIXGeneral-Regular-65"/>
    </g>
   </g>
  </g>
  <g id="axes_2">
   <g id="patch_7">
    <path d="
M144 216
L432 216
L432 86.4
L144 86.4
z
" style="fill:#ffffff;"/>
   </g>
   <g id="line2d_26">
    <path clip-path="url(#pfb84f8567c)" d="
M144 216
L147.556 201.6
L158.222 187.2
L176 172.8
L200.889 158.4
L232.889 144
L272 129.6
L318.222 115.2
L371.556 100.8
L432 86.4" style="fill:none;stroke:#008000;stroke-linecap:square;stroke-width:2.0;"/>
   </g>
   <g id="matplotlib.axis_3">
    <g id="xtick_7">
     <g id="line2d_27">
      <g>
       <use style="stroke:#000000;stroke-width:0.5;" x="144.0" xlink:href="#m93b0483c22" y="216.0"/>
      </g>
     </g>
     <g id="line2d_28">
      <g>
       <use style="stroke:#000000;stroke-width:0.5;" x="144.0" xlink:href="#m741efc42ff" y="86.4"/>
      </g>
     </g>
     <g id="text_16">
      <!-- 0 -->
      <g transform="translate(140.836875 229.5615625)scale(0.14 -0.14)">
       <use xlink:href="#STIXGeneral-Regular-30"/>
      </g>
     </g>
    </g>
    <g id="xtick_8">
     <g id="line2d_29">
      <g>
       <use style="stroke:#000000;stroke-width:0.5;" x="201.6" xlink:href="#m93b0483c22" y="216.0"/>
      </g>
     </g>
     <g id="line2d_30">
      <g>
       <use style="stroke:#000000;stroke-width:0.5;" x="201.6" xlink:href="#m741efc42ff" y="86.4"/>
      </g>
     </g>
     <g id="text_17">
      <!-- 5 -->
      <g transform="translate(198.75078125 229.5615625)scale(0.14 -0.14)">
       <use xlink:href="#STIXGeneral-Regular-35"/>
      </g>
     </g>
    </g>
    <g id="xtick_9">
     <g id="line2d_31">
      <g>
       <use style="stroke:#000000;stroke-width:0.5;" x="259.2" xlink:href="#m93b0483c22" y="216.0"/>
      </g>
     </g>
     <g id="line2d_32">
      <g>
       <use style="stroke:#000000;stroke-width:0.5;" x="259.2" xlink:href="#m741efc42ff" y="86.4"/>
      </g>
     </g>
     <g id="text_18">
      <!-- 10 -->
      <g transform="translate(253.145 229.5615625)scale(0.14 -0.14)">
       <use xlink:href="#STIXGeneral-Regular-31"/>
       <use x="49.9999847412" xlink:href="#STIXGeneral-Regular-30"/>
      </g>
     </g>
    </g>
    <g id="xtick_10">
     <g id="line2d_33">
      <g>
       <use style="stroke:#000000;stroke-width:0.5;" x="316.8" xlink:href="#m93b0483c22" y="216.0"/>
      </g>
     </g>
     <g id="line2d_34">
      <g>
       <use style="stroke:#000000;stroke-width:0.5;" x="316.8" xlink:href="#m741efc42ff" y="86.4"/>
      </g>
     </g>
     <g id="text_19">
      <!-- 15 -->
      <g transform="translate(311.01078125 229.5615625)scale(0.14 -0.14)">
       <use xlink:href="#STIXGeneral-Regular-31"/>
       <use x="49.9999847412" xlink:href="#STIXGeneral-Regular-35"/>
      </g>
     </g>
    </g>
    <g id="xtick_11">
     <g id="line2d_35">
      <g>
       <use style="stroke:#000000;stroke-width:0.5;" x="374.4" xlink:href="#m93b0483c22" y="216.0"/>
      </g>
     </g>
     <g id="line2d_36">
      <g>
       <use style="stroke:#000000;stroke-width:0.5;" x="374.4" xlink:href="#m741efc42ff" y="86.4"/>
      </g>
     </g>
     <g id="text_20">
      <!-- 20 -->
      <g transform="translate(367.771875 229.5615625)scale(0.14 -0.14)">
       <use xlink:href="#STIXGeneral-Regular-32"/>
       <use x="49.9999847412" xlink:href="#STIXGeneral-Regular-30"/>
      </g>
     </g>
    </g>
    <g id="xtick_12">
     <g id="line2d_37">
      <g>
       <use style="stroke:#000000;stroke-width:0.5;" x="432.0" xlink:href="#m93b0483c22" y="216.0"/>
      </g>
     </g>
     <g id="line2d_38">
      <g>
       <use style="stroke:#000000;stroke-width:0.5;" x="432.0" xlink:href="#m741efc42ff" y="86.4"/>
      </g>
     </g>
     <g id="text_21">
      <!-- 25 -->
      <g transform="translate(425.63765625 229.5615625)scale(0.14 -0.14)">
       <use xlink:href="#STIXGeneral-Regular-32"/>
       <use x="49.9999847412" xlink:href="#STIXGeneral-Regular-35"/>
      </g>
     </g>
    </g>
    <g id="text_22">
     <!-- y -->
     <g transform="translate(284.7734375 247.1484375)scale(0.14 -0.14)">
      <use xlink:href="#STIXGeneral-Regular-79"/>
     </g>
    </g>
   </g>
   <g id="matplotlib.axis_4">
    <g id="ytick_7">
     <g id="line2d_39">
      <g>
       <use style="stroke:#000000;stroke-width:0.5;" x="144.0" xlink:href="#m728421d6d4" y="216.0"/>
      </g>
     </g>
     <g id="line2d_40">
      <g>
       <use style="stroke:#000000;stroke-width:0.5;" x="432.0" xlink:href="#mcb0005524f" y="216.0"/>
      </g>
     </g>
     <g id="text_23">
      <!-- 0 -->
      <g transform="translate(133.67375 219.2615625)scale(0.14 -0.14)">
       <use xlink:href="#STIXGeneral-Regular-30"/>
      </g>
     </g>
    </g>
    <g id="ytick_8">
     <g id="line2d_41">
      <g>
       <use style="stroke:#000000;stroke-width:0.5;" x="144.0" xlink:href="#m728421d6d4" y="190.08"/>
      </g>
     </g>
     <g id="line2d_42">
      <g>
       <use style="stroke:#000000;stroke-width:0.5;" x="432.0" xlink:href="#mcb0005524f" y="190.08"/>
      </g>
     </g>
     <g id="text_24">
      <!-- 1 -->
      <g transform="translate(136.03625 193.3415625)scale(0.14 -0.14)">
       <use xlink:href="#STIXGeneral-Regular-31"/>
      </g>
     </g>
    </g>
    <g id="ytick_9">
     <g id="line2d_43">
      <g>
       <use style="stroke:#000000;stroke-width:0.5;" x="144.0" xlink:href="#m728421d6d4" y="164.16"/>
      </g>
     </g>
     <g id="line2d_44">
      <g>
       <use style="stroke:#000000;stroke-width:0.5;" x="432.0" xlink:href="#mcb0005524f" y="164.16"/>
      </g>
     </g>
     <g id="text_25">
      <!-- 2 -->
      <g transform="translate(133.77 167.4215625)scale(0.14 -0.14)">
       <use xlink:href="#STIXGeneral-Regular-32"/>
      </g>
     </g>
    </g>
    <g id="ytick_10">
     <g id="line2d_45">
      <g>
       <use style="stroke:#000000;stroke-width:0.5;" x="144.0" xlink:href="#m728421d6d4" y="138.24"/>
      </g>
     </g>
     <g id="line2d_46">
      <g>
       <use style="stroke:#000000;stroke-width:0.5;" x="432.0" xlink:href="#mcb0005524f" y="138.24"/>
      </g>
     </g>
     <g id="text_26">
      <!-- 3 -->
      <g transform="translate(134.54 141.5015625)scale(0.14 -0.14)">
       <use xlink:href="#STIXGeneral-Regular-33"/>
      </g>
     </g>
    </g>
    <g id="ytick_11">
     <g id="line2d_47">
      <g>
       <use style="stroke:#000000;stroke-width:0.5;" x="144.0" xlink:href="#m728421d6d4" y="112.32"/>
      </g>
     </g>
     <g id="line2d_48">
      <g>
       <use style="stroke:#000000;stroke-width:0.5;" x="432.0" xlink:href="#mcb0005524f" y="112.32"/>
      </g>
     </g>
     <g id="text_27">
      <!-- 4 -->
      <g transform="translate(133.546875 115.5815625)scale(0.14 -0.14)">
       <use xlink:href="#STIXGeneral-Regular-34"/>
      </g>
     </g>
    </g>
    <g id="ytick_12">
     <g id="line2d_49">
      <g>
       <use style="stroke:#000000;stroke-width:0.5;" x="144.0" xlink:href="#m728421d6d4" y="86.4"/>
      </g>
     </g>
     <g id="line2d_50">
      <g>
       <use style="stroke:#000000;stroke-width:0.5;" x="432.0" xlink:href="#mcb0005524f" y="86.4"/>
      </g>
     </g>
     <g id="text_28">
      <!-- 5 -->
      <g transform="translate(134.3015625 89.6615625)scale(0.14 -0.14)">
       <use xlink:href="#STIXGeneral-Regular-35"/>
      </g>
     </g>
    </g>
    <g id="text_29">
     <!-- x -->
     <g transform="translate(125.5084375 154.43421875)rotate(-90.0)scale(0.14 -0.14)">
      <use xlink:href="#STIXGeneral-Regular-78"/>
     </g>
    </g>
   </g>
   <g id="patch_8">
    <path d="
M144 86.4
L432 86.4" style="fill:none;stroke:#000000;"/>
   </g>
   <g id="patch_9">
    <path d="
M432 216
L432 86.4" style="fill:none;stroke:#000000;"/>
   </g>
   <g id="patch_10">
    <path d="
M144 216
L432 216" style="fill:none;stroke:#000000;"/>
   </g>
   <g id="patch_11">
    <path d="
M144 216
L144 86.4" style="fill:none;stroke:#000000;"/>
   </g>
   <g id="text_30">
    <!-- insert title -->
    <defs>
     <path d="
M15.5938 30.0938
L26 23.7969
Q31 20.7969 32.8906 18.1875
Q34.7969 15.5938 34.7969 11.5
Q34.7969 6.5 30.6406 2.75
Q26.5 -1 20.7969 -1
Q16.0938 -1 13.5 -0.09375
Q10.7969 0.796875 8.90625 0.796875
Q7.20312 0.796875 6.5 -0.40625
L5.20312 -0.40625
L5.20312 15.2969
L6.79688 15.2969
Q8.40625 8 11.4062 4.59375
Q14.4062 1.20312 19.5 1.20312
Q23.2031 1.20312 25.5 3.29688
Q27.7969 5.40625 27.7969 8.59375
Q27.7969 13.2031 22.5 16.0938
L17.0938 19.0938
Q5.09375 25.7969 5.09375 33.5938
Q5.09375 39.4062 8.84375 42.6562
Q12.5938 45.9062 18.9062 45.9062
Q23.2969 45.9062 25.5938 44.7969
Q27.4062 44 28.4062 44
Q29.0938 44 30 45
L31.0938 45
L31.5938 31.4062
L30.0938 31.4062
Q28.4062 38.2031 25.8438 40.9531
Q23.2969 43.7031 18.7969 43.7031
Q15.4062 43.7031 13.3438 42
Q11.2969 40.2969 11.2969 36.9062
Q11.2969 35.2031 12.4375 33.25
Q13.5938 31.2969 15.5938 30.0938" id="STIXGeneral-Regular-73"/>
     <path d="
M16 45.7969
L16 36.5938
Q19.7969 42 22.3438 44
Q24.9062 46 28 46
Q30.5938 46 32.0469 44.5938
Q33.5 43.2031 33.5 40.7031
Q33.5 38.5938 32.4531 37.3906
Q31.4062 36.2031 29.5938 36.2031
Q27.7031 36.2031 25.5938 38.2031
Q24 39.7031 23 39.7031
Q20.9062 39.7031 18.4531 36.7969
Q16 33.9062 16 31.5
L16 9
Q16 4.70312 17.7031 3.20312
Q19.4062 1.70312 24.5 1.5
L24.5 0
L0.5 0
L0.5 1.5
Q5.29688 2.40625 6.4375 3.5
Q7.59375 4.59375 7.59375 8.40625
L7.59375 33.4062
Q7.59375 36.7031 6.84375 38.0469
Q6.09375 39.4062 4.20312 39.4062
Q2.59375 39.4062 0.703125 39
L0.703125 40.5938
Q7 42.5938 15.5 46
z
" id="STIXGeneral-Regular-72"/>
     <path id="STIXGeneral-Regular-20"/>
     <path d="
M48.5 0
L27.7031 0
L27.7969 1.5
Q31.5 1.79688 32.75 3.64062
Q34 5.5 34 10.5
L34 30.4062
Q34 40.5 26.7031 40.5
Q24.2031 40.5 22 39.2969
Q19.7969 38.0938 16.4062 34.7969
L16.4062 7.20312
Q16.4062 4.20312 17.75 3
Q19.0938 1.79688 22.9062 1.5
L22.9062 0
L1.79688 0
L1.79688 1.5
Q5.59375 1.79688 6.79688 3.34375
Q8 4.90625 8 9.40625
L8 33.7031
Q8 37.4062 7.29688 38.7969
Q6.59375 40.2031 4.5 40.2031
Q2.5 40.2031 1.59375 39.7969
L1.59375 41.5
Q8.59375 43.5 15.2969 46
L16.0938 45.7031
L16.0938 37.9062
L16.2031 37.9062
Q23.2969 46 30.5938 46
Q36.2969 46 39.3438 42
Q42.4062 38 42.4062 30.5938
L42.4062 8.5
Q42.4062 4.5 43.5938 3.20312
Q44.7969 1.90625 48.5 1.5
z
" id="STIXGeneral-Regular-6e"/>
    </defs>
    <g transform="translate(254.3330625 81.4)scale(0.168 -0.168)">
     <use xlink:href="#STIXGeneral-Regular-69"/>
     <use x="27.799987793" xlink:href="#STIXGeneral-Regular-6e"/>
     <use x="77.7999725342" xlink:href="#STIXGeneral-Regular-73"/>
     <use x="116.699966431" xlink:href="#STIXGeneral-Regular-65"/>
     <use x="161.099960327" xlink:href="#STIXGeneral-Regular-72"/>
     <use x="194.39994812" xlink:href="#STIXGeneral-Regular-74"/>
     <use x="222.199935913" xlink:href="#STIXGeneral-Regular-20"/>
     <use x="247.199920654" xlink:href="#STIXGeneral-Regular-74"/>
     <use x="274.999908447" xlink:href="#STIXGeneral-Regular-69"/>
     <use x="302.79989624" xlink:href="#STIXGeneral-Regular-74"/>
     <use x="330.599884033" xlink:href="#STIXGeneral-Regular-6c"/>
     <use x="358.399871826" xlink:href="#STIXGeneral-Regular-65"/>
    </g>
   </g>
  </g>
 </g>
 <defs>
  <clipPath id="pfb84f8567c">
   <rect height="129.6" width="288.0" x="144.0" y="86.4"/>
  </clipPath>
  <clipPath id="p44c2d976d3">
   <rect height="345.6" width="576.0" x="72.0" y="43.2"/>
  </clipPath>
 </defs>
</svg>
